<?xml version="1.0" standalone="no"?>
<!DOCTYPE svg PUBLIC "-//W3C//DTD SVG 20010904//EN"
 "http://www.w3.org/TR/2001/REC-SVG-20010904/DTD/svg10.dtd">
<svg version="1.0" xmlns="http://www.w3.org/2000/svg"
 width="175.000000pt" height="167.000000pt" viewBox="0 0 175.000000 167.000000"
 preserveAspectRatio="xMidYMid meet">

<g transform="translate(0.000000,167.000000) scale(0.100000,-0.100000)"
fill="#000000" stroke="none">
<path d="M0 835 l0 -835 875 0 875 0 0 835 0 835 -875 0 -875 0 0 -835z m452
378 c3 -266 5 -278 56 -305 18 -9 71 -13 176 -13 l151 0 207 269 c114 148 213
276 221 283 10 10 36 13 91 11 l78 -3 -211 -277 c-116 -152 -211 -279 -211
-282 0 -3 51 -6 113 -6 127 0 170 -14 224 -71 60 -63 63 -81 63 -369 l0 -260
-64 0 -64 0 -4 248 c-2 182 -6 253 -16 270 -24 41 -69 52 -221 52 l-139 0
-218 -285 -217 -285 -84 0 c-45 0 -83 2 -83 4 0 2 94 127 210 278 115 150 210
276 210 281 0 4 -51 7 -112 7 -131 0 -173 14 -227 75 -59 68 -61 79 -61 365
l0 260 64 0 65 0 3 -247z"/>
</g>
</svg>
