<?xml version="1.0" encoding="UTF-8" standalone="no"?>
<!-- Created with Inkscape (http://www.inkscape.org/) -->

<svg
   width="172.25771mm"
   height="39.25824mm"
   viewBox="0 0 172.25771 39.25824"
   version="1.1"
   id="svg1"
   xmlns="http://www.w3.org/2000/svg"
   xmlns:svg="http://www.w3.org/2000/svg">
  <defs
     id="defs1" />
  <g
     id="layer1"
     transform="translate(-60.98704,-74.31715)">
    <path
       d="M2 0A2 2 0 0 0 0 2V14A2 2 0 0 0 2 16H14A2 2 0 0 0 16 14V2A2 2 0 0 0 14 0H2ZM9.5 11H5.5A0.5 0.5 0 0 1 5 10.5V6.5A0.5 0.5 0 0 1 6 6.5V9.293L10.146 5.146A0.5 0.5 0 0 1 10.854 5.854L6.707 10H9.5A0.5 0.5 0 0 1 9.5 11Z"
       id="text1"
       style="stroke-width:4.48765"
       aria-label="ARM-X" />
  </g>
</svg>
