<?xml version="1.0" encoding="UTF-8" standalone="no"?>
<svg
   width="1345pt"
   height="945pt"
   viewBox="0 0 1345 945"
   version="1.1"
   id="svg1"
   xmlns="http://www.w3.org/2000/svg"
   xmlns:svg="http://www.w3.org/2000/svg">
  <defs
     id="defs1" />
  <path
     d="m 566.32454,327.19244 h 62.54415 l 79.1672,211.11252 79.58277,-211.11252 h 62.54417 V 637.4198 H 809.22861 V 365.00984 L 729.23026,577.78467 H 687.04931 L 607.05097,365.00984 V 637.4198 h -40.72643 z"
     id="text4"
     style="font-size:418.972px;stroke-width:35.4624"
     aria-label="M" />
  <path
     d="m 915.12427,460.76802 h 167.12913 v 50.85191 H 915.12427 Z"
     id="text5"
     style="font-size:549.456px;stroke-width:52.9188"
     aria-label="-&#10;" />
  <path
     d="m 1080.9309,321.97505 h 45.5812 l 77.929,116.57864 78.3493,-116.57864 h 45.5812 l -100.8247,150.607 107.5464,163.00004 h -45.5812 l -88.2217,-133.38277 -88.8518,133.38277 h -45.7913 l 111.9576,-167.41112 z"
     id="text39"
     style="font-size:422.006px;stroke-width:35.8488"
     aria-label="X" />
  <path
     d="m 164.85113,376.77667 -55.2721,149.8798 H 220.32492 Z M 141.8547,336.63344 h 46.19456 l 114.7803,301.17249 h -42.36177 l -27.4343,-77.26007 H 97.273957 L 69.839653,637.80593 H 26.872684 Z"
     id="text41"
     style="font-size:9px;stroke-width:34.4274"
     aria-label="A" />
  <path
     d="m 461.64202,491.10861 q 13.54747,4.58617 26.2607,19.59154 12.92191,15.00632 25.84383,41.26703 l 42.72586,85.03485 H 511.24572 L 471.43756,557.17749 Q 456.01483,525.91468 441.4254,515.70226 427.04463,505.48984 402.03458,505.48984 H 356.18233 V 637.00203 H 314.08155 V 325.8328 h 95.03907 q 53.35516,0 79.61587,22.30056 26.2607,22.30104 26.2607,67.31952 0,29.38708 -13.75567,48.76995 -13.547,19.38285 -39.5995,26.88578 z M 356.18233,360.43019 v 110.46179 h 52.93829 q 30.42904,0 45.85225,-13.96387 15.6314,-14.17256 15.6314,-41.47523 0,-27.30314 -15.6314,-41.05834 -15.42321,-13.96435 -45.85225,-13.96435 z"
     id="text42"
     style="font-size:9px;stroke-width:35.5701"
     aria-label="R" />
</svg>
