<?xml version="1.0" encoding="UTF-8" standalone="no"?>
<svg
   width="1345pt"
   height="945pt"
   viewBox="0 0 1345 945"
   version="1.1"
   id="svg1"
   sodipodi:docname="dawda.svg"
   inkscape:version="1.3.1 (9b9bdc1480, 2023-11-25, custom)"
   xmlns:inkscape="http://www.inkscape.org/namespaces/inkscape"
   xmlns:sodipodi="http://sodipodi.sourceforge.net/DTD/sodipodi-0.dtd"
   xmlns="http://www.w3.org/2000/svg"
   xmlns:svg="http://www.w3.org/2000/svg">
  <defs
     id="defs1" />
  <sodipodi:namedview
     id="namedview1"
     pagecolor="#ffffff"
     bordercolor="#000000"
     borderopacity="0.25"
     inkscape:showpageshadow="2"
     inkscape:pageopacity="0.0"
     inkscape:pagecheckerboard="0"
     inkscape:deskcolor="#d1d1d1"
     inkscape:document-units="pt"
     inkscape:zoom="0.45793582"
     inkscape:cx="823.25947"
     inkscape:cy="766.48295"
     inkscape:window-width="1920"
     inkscape:window-height="1016"
     inkscape:window-x="0"
     inkscape:window-y="27"
     inkscape:window-maximized="1"
     inkscape:current-layer="svg1" />
  <path
     d="M 146.9164,365.36054 89.857039,520.08722 H 204.18401 Z m -23.74002,-41.44093 h 47.6883 L 289.35656,634.83069 H 245.62495 L 217.30351,555.07252 H 77.154049 L 48.83262,634.83069 H 4.4762313 Z"
     id="text1"
     style="font-size:144px;stroke-width:2.22129"
     aria-label="A" />
  <text
     xml:space="preserve"
     style="font-size:9px;fill:#000000;stroke-width:0.75"
     x="620.08905"
     y="527.37927"
     id="text2"><tspan
       sodipodi:role="line"
       id="tspan1"
       style="stroke-width:0.75"
       x="620.08905"
       y="527.37927" /></text>
  <path
     d="m 455.23346,493.78895 q 13.47007,4.56015 26.1116,19.48032 12.84854,14.92111 25.69709,41.03272 l 42.48329,84.55206 h -44.9699 l -39.58216,-79.37133 q -15.33517,-31.08531 -29.84177,-41.23974 -14.2991,-10.15444 -39.16764,-10.15444 H 350.37206 V 638.85405 H 308.51078 V 329.45152 h 94.49948 q 53.05224,0 79.16383,22.17442 26.11161,22.17396 26.11161,66.93683 0,29.22024 -13.67759,48.49304 -13.47054,19.27283 -39.37465,26.73314 z M 350.37206,363.85248 v 109.83463 h 52.6382 q 30.25627,0 45.59143,-13.8846 15.54266,-14.09208 15.54266,-41.23974 0,-27.14765 -15.54266,-40.82522 -15.33516,-13.88507 -45.59143,-13.88507 z"
     id="text3"
     style="font-size:9px;stroke-width:35.3682"
     aria-label="R" />
  <path
     d="m 570.71179,331.98759 h 61.57742 l 77.94352,207.84938 78.35267,-207.84938 h 61.57743 V 637.4198 h -40.3015 V 369.22045 L 731.0995,578.70644 H 689.57054 L 610.80872,369.22045 V 637.4198 h -40.09693 z"
     id="text4"
     style="font-size:418.972px;stroke-width:34.9143"
     aria-label="M" />
  <path
     d="m 902.47173,474.16201 h 144.60777 v 43.99941 H 902.47173 Z"
     id="text5"
     style="font-size:549.456px;stroke-width:45.7878"
     aria-label="-&#10;" />
  <text
     xml:space="preserve"
     style="font-size:9px;fill:#000000;stroke-width:0.75"
     x="812.54407"
     y="388.43079"
     id="text6"><tspan
       sodipodi:role="line"
       id="tspan6"
       style="stroke-width:0.75"
       x="812.54407"
       y="388.43079"></tspan></text>
  <path
     d="m 1085.7636,327.93806 h 44.7145 l 76.4473,114.36198 76.8595,-114.36198 h 44.7145 l -98.9076,147.74332 105.5015,159.90071 h -44.7145 l -86.5442,-130.84659 -87.1624,130.84659 h -44.9206 l 109.8288,-164.22792 z"
     id="text39"
     style="font-size:422.006px;stroke-width:35.1672"
     aria-label="X" />
</svg>
