<?xml version="1.0" encoding="UTF-8" standalone="no"?>
<svg
   width="2550pt"
   height="2145pt"
   viewBox="0 0 2550 2145"
   version="1.1"
   id="svg1"
   sodipodi:docname="helado_en_vaso.svg"
   inkscape:version="1.3.1 (9b9bdc1480, 2023-11-25, custom)"
   xml:space="preserve"
   xmlns:inkscape="http://www.inkscape.org/namespaces/inkscape"
   xmlns:sodipodi="http://sodipodi.sourceforge.net/DTD/sodipodi-0.dtd"
   xmlns="http://www.w3.org/2000/svg"
   xmlns:svg="http://www.w3.org/2000/svg"><defs
     id="defs1" /><sodipodi:namedview
     id="namedview1"
     pagecolor="#ffffff"
     bordercolor="#000000"
     borderopacity="0.25"
     inkscape:showpageshadow="2"
     inkscape:pageopacity="0.0"
     inkscape:pagecheckerboard="0"
     inkscape:deskcolor="#d1d1d1"
     inkscape:document-units="pt"
     showgrid="false"
     inkscape:zoom="0.11448396"
     inkscape:cx="1768.8068"
     inkscape:cy="1187.9394"
     inkscape:window-width="1920"
     inkscape:window-height="1016"
     inkscape:window-x="0"
     inkscape:window-y="27"
     inkscape:window-maximized="1"
     inkscape:current-layer="svg1" /><path
     d="m -1549.1678,4266.4698 c -77.8516,-19.3755 -148.6495,-71.2097 -160.7412,-117.6857 -24.414,-93.8374 -70.9512,-301.9776 -139.1064,-622.1599 -40.206,-188.8806 -86.2598,-401.9574 -102.342,-473.5034 -16.082,-71.5456 -63.1006,-286.6827 -104.4852,-478.082 l -75.2455,-347.9997 -63.7462,-8.7777 c -197.5579,-27.202 -424.0795,-130.7165 -516.5763,-236.0627 -146.7695,-167.158 -87.3992,-381.5929 142.9809,-516.4211 87.8843,-51.4337 7471.0619,-51.4337 7558.946,0 231.2257,135.3239 288.5592,341.1656 142.8632,512.945 -91.7536,108.1844 -315.2197,211.8302 -516.4598,239.5388 l -63.7462,8.7777 -75.2455,347.9997 c -41.3851,191.3993 -88.4022,406.5364 -104.4852,478.082 -16.0809,71.546 -62.1361,284.6228 -102.3415,473.5034 -68.1564,320.1823 -114.6926,528.3225 -139.1054,622.1599 -12.3767,47.5676 -83.8506,98.8117 -164.764,118.1289 -87.105,20.7953 -5432.7783,20.3662 -5516.39,-0.4423 z M 3640.3659,3950.696 c 5.4249,-15.7399 30.4129,-124.6195 55.5312,-241.9552 25.1171,-117.335 87.1652,-405.3393 137.8813,-640.0097 50.7176,-234.6701 108.6861,-503.9429 128.8179,-598.3833 20.1318,-94.4406 41.2656,-186.9302 46.9685,-205.532 l 10.3646,-33.8217 H 1211.0383 -1597.8518 l 10.3643,33.8217 c 5.7005,18.6018 26.8361,111.0914 46.968,205.532 20.132,94.4404 78.0994,363.7132 128.8167,598.3833 50.7174,234.6704 112.7641,522.6747 137.8816,640.0097 25.1179,117.3357 50.1071,226.2153 55.5317,241.9552 l 9.8633,28.6184 h 2419.4645 2419.4624 z"
     fill="#000000"
     id="helado_inferior"
     inkscape:label="Inferior_helado"
     sodipodi:nodetypes="csssscsssscscscccscccscsccccssssscccc" /><path
     fill="#000000"
     d="m -2205.0389,1457.8441 c 34.5303,0 35.0788,-17.848 2.3095,-75.0848 -44.4179,-77.5789 -51.2624,-154.8015 -21.057,-237.5748 71.4401,-195.77134 314.2581,-342.06514 648.2488,-390.55954 64.7688,-9.4043 119.898,-18.2017 122.5093,-19.5499 2.6111,-1.3486 -8.2293,-23.0845 -24.09,-48.3028 -17.8527,-28.3859 -29.1746,-81.5288 -29.7227,-139.5117 -1.3824,-146.2893 59.7653,-239.9563 223.4521,-342.29 157.3993,-98.4031 395.42206,-162.433402 603.82146,-162.433402 44.4664,0 85.6871,-2.7649 91.6016,-6.1443 5.9141,-3.3792 -0.2869,-24.0231 -13.7804,-45.8751001 -13.4933,-21.8522999 -29.9712,-76.4541999 -36.6176,-121.3375979 -25.8707,-174.7099 91.6717,-340.0097 351.5971,-494.4498 228.8077,-135.9509 493.0347,-232.3305 923.5109,-336.8603 233.4593,-56.68946 325.8428,-85.77566 467.22194,-147.10116 399.4072,-173.2503 416.3915,-458.067 38.6769,-648.5851 -47.8472,-24.1339 -150.43304,-64.8297 -227.96854,-90.4354 -217.2675,-71.7509 -277.0465,-141.3667 -197.7015,-230.2332 59.4857,-66.6236 152.0806,-89.2656 327.94614,-80.1915 193.7084,9.9948 543.6573,52.4734 748.3648,90.8402 259.0964,48.5607 400.4149,84.0632 596.6502,149.8925 234.1039,78.5329 509.9708,233.5313 618.3879,347.4471 227.0565,238.571 257.0281,469.3093 104.6949,805.94936 -144.1689,318.5955 -101.9231,422.0848 264.8181,648.7289 363.0308,224.3526 488.3842,331.6697 555.71,475.7587 39.0874,83.6512 39.7163,265.2113 1.1406,326.517 -15.7627,25.045 -28.6581,46.9013 -28.6581,48.5693 0,1.6678 43.0272,8.292 95.6191,14.7201 499.2808,61.0275 813.1607,362.78504 658.4402,633.01244 -32.7713,57.2368 -32.2218,75.0848 2.3069,75.0848 z m 6216.7549,-54.6465 c 41.6426,-15.7467 92.268,-47.1702 112.4987,-69.8305 68.3947,-76.601 36.4556,-188.6751 -69.3482,-243.3475 -92.0304,-47.5542 -90.2185,-47.5023 -1677.5637,-47.9852 -1467.51814,-0.4467 -1503.06454,-0.93 -1575.44374,-21.4214 -104.8108,-29.67384 -145.646,-66.08424 -145.3962,-129.64284 0.2209,-57.6969 34.9694,-96.555 113.5916,-127.0482 45.6095,-17.6893 126.6939,-19.277 1232.68024,-24.1381 l 1183.8583,-5.2032 78.3075,-25.6203 c 139.0846,-45.5057 195.5353,-125.1343 165.1451,-232.9532 -31.7659,-112.7055 -103.5895,-175.5704 -423.6321,-370.7999 -256.2964,-156.344302 -370.265,-255.126 -450.5178,-390.4802 -37.9897,-64.0742 -43.1296,-91.6446 -42.6836,-228.9466 0.4794,-147.424 4.195,-163.6193 66.8659,-291.3868 115.8729,-236.23016 128.5349,-370.77716 47.9887,-509.92686 -74.5877,-128.8591 -220.8118,-231.433 -459.0194,-321.9955 -120.5504,-45.8312 -298.8954,-99.4746 -330.7173,-99.4746 -3.6153,0 9.1142,20.2626 28.287,45.0279 52.6924,68.0629 95.6719,227.8113 81.4168,302.6152 -45.9453,241.1016 -251.4677,423.29006 -646.981,573.52706 -70.6343,26.8305 -269.4893,85.5668 -441.90054,130.5251 -341.1467,88.9583 -460.6766,126.4699 -613.9934,192.6876 -353.6474,152.7401 -458.238,338.153 -261.0865,462.841198 103.9404,65.7371 170.0044,72.3164 726.1359,72.3164 465.22724,0 478.13444,0.566 538.53764,23.6225 86.9439,33.187 130.0809,84.856202 117.6962,140.976502 -11.2023,50.7667 -35.0055,73.9205 -111.2251,108.1934 l -52.924,23.7976 -985.43074,5.2034 -985.4305,5.2033 -67.021,29.2212 c -139.1585,60.6731 -184.15046,172.3502 -102.7681,255.0861 57.4047,58.3599 126.9031,84.0501 275.1578,101.7126 206.6783,24.6228 278.2901,64.5411 278.2901,155.1269 0,57.4103 -34.752,96.2611 -113.386,126.75864 -43.0502,16.6968 -103.718,19.5573 -513.25806,24.2006 -384.0116,4.3537 -473.9063,8.2239 -519.1197,22.3496 -110.2254,34.4362 -172.9826,98.0022 -172.9826,175.2123 0,86.1485 80.9264,154.4698 221.2025,186.7483 26.4988,6.0977 1070.04996,9.1062 2730.6721,7.8734 l 2687.7826,-1.996 z"
     id="helado_superior"
     inkscape:label="superior_helado"
     sodipodi:nodetypes="scssssssssssssssssssssssscscsssscssscsscssssssssssssssssssscccsssssssssscs" /><path
     fill="#000000"
     d="m 349.92609,3738.5282 c 0.42596,-4.3435 153.1096,-135.8379 339.30094,-292.2085 l 338.52997,-284.3115 -181.78637,-6.6399 -181.78582,-6.6395 -72.97839,-8.9595 C 500.5681,3128.6418 438.94635,3046.3748 406.84711,2996.4984 l -25.19624,-39.1499 v -274.1191 -274.1197 h 113.7375 113.737 v 264.0612 l 9.13101,260.8381 39.2732,39.9223 46.58495,24.8612 h 258.8088 258.80947 l 347.6849,-294.5558 347.685,-294.5564 134.0471,-0.2818 c 166.1287,-0.3573 191.5526,-37.3047 -206.7105,300.429 l -340.7583,288.9682 141.7185,0.2561 c 177.5059,0.3244 265.0442,13.1993 351.3561,51.6851 l 67.8068,30.2345 44.0693,52.4744 44.0698,52.4748 v 280.2536 280.2539 h -113.7372 -113.738 v -262.4437 -262.4431 l -42.0641,-32.398 -42.0653,-32.398 -262.588,0.2786 -262.5881,0.2786 L 969.98593,3451.8631 624.051,3746.4239 H 486.603 c -75.59673,0 -137.10116,-3.5541 -136.67691,-7.8977 z"
     id="logo"
     sodipodi:nodetypes="sscccsscccccccccccccsscsscccccccccccccccss" /><path
     d="m 4569.3049,1913.7101 c 181.7951,-47.1725 192.4889,-196.8748 18.3712,-257.1063 -55.0218,-19.0331 -155.4442,-19.6223 -3344.2115,-19.6223 -3188.7681,0 -3289.1899,0.5895 -3344.2109,19.6223 -64.4311,22.2879 -106.2816,58.5039 -124.8074,108.0034 -19.9108,53.1998 48.6203,124.567 143.1765,149.1029 72.0774,18.703 192.337,19.4046 3325.8418,19.4046 783.3758,0 1378.424,-0.044 1831.4735,-0.402 453.0496,-0.3582 764.1006,-1.0304 979.482,-2.2872 215.3813,-1.2567 335.0931,-3.0978 405.4642,-5.7937 70.3712,-2.6958 91.4017,-6.2463 109.4206,-10.9217 z"
     fill="#ffffff"
     id="tapa" /></svg>
