<?xml version="1.0" encoding="UTF-8" standalone="no"?>
<!-- Created with Inkscape (http://www.inkscape.org/) -->

<svg
   version="1.1"
   id="svg1"
   width="89.370491"
   height="101.68093"
   viewBox="0 0 89.370491 101.68093"
   sodipodi:docname="LogoX.jpg"
   inkscape:version="0.0"
   xmlns:inkscape="http://www.inkscape.org/namespaces/inkscape"
   xmlns:sodipodi="http://sodipodi.sourceforge.net/DTD/sodipodi-0.dtd"
   xmlns="http://www.w3.org/2000/svg"
   xmlns:svg="http://www.w3.org/2000/svg">
  <defs
     id="defs1" />
  <sodipodi:namedview
     id="namedview1"
     pagecolor="#ffffff"
     bordercolor="#000000"
     borderopacity="0.25"
     inkscape:showpageshadow="2"
     inkscape:pageopacity="0.0"
     inkscape:pagecheckerboard="0"
     inkscape:deskcolor="#d1d1d1"
     inkscape:zoom="3.0538921"
     inkscape:cx="72.039219"
     inkscape:cy="128.36079"
     inkscape:window-width="1920"
     inkscape:window-height="1016"
     inkscape:window-x="0"
     inkscape:window-y="27"
     inkscape:window-maximized="1"
     inkscape:current-layer="g1" />
  <g
     inkscape:groupmode="layer"
     inkscape:label="Image"
     id="g1"
     transform="translate(-24.037862,-16.719082)">
    <path
       style="fill:#000000"
       d="m 24.037969,117.80001 c 0.02088,-0.33 7.538558,-10.32001 16.705945,-22.200006 L 57.41189,74.000003 48.461404,73.495572 39.510918,72.99114 35.91775,72.310473 C 31.455044,71.465086 28.421003,65.214971 26.840545,61.425698 L 25.6,58.451392 V 37.625697 16.800001 h 5.6 5.6 V 36.86154 l 0.449581,19.816646 1.933675,3.033047 2.293667,1.88877 h 12.742799 12.7428 L 84.081261,39.221683 101.2,16.843362 l 6.6,-0.02168 c 8.17955,-0.02687 9.43135,-2.834165 -10.177689,22.824506 l -16.77769,21.953815 6.97769,0.01956 c 8.739801,0.0245 13.049809,1.002786 17.299519,3.926661 l 3.33854,2.296974 2.16981,3.986667 2.16982,3.986667 v 21.291738 21.29174 h -5.6 -5.6 V 98.461385 78.522764 L 99.528885,76.061384 97.45777,73.600003 84.528885,73.621334 71.6,73.642664 54.567448,96.021335 37.534895,118.40001 h -6.767447 c -3.722097,0 -6.750362,-0.27 -6.729479,-0.6 z"
       id="path1"
       sodipodi:nodetypes="sscccsscccccccccccccsscsscccccccccccccccss" />
  </g>
</svg>
