<svg xmlns="http://www.w3.org/2000/svg" xmlns:xlink="http://www.w3.org/1999/xlink" width="945pt" height="1350pt" viewBox="0 0 945 945" version="1.1">
  <g id="surface1">
    <!-- A -->
    <path fill="#000000" id="k" d="M 141.8547,336.63344 H 188.04926 L 302.82956,637.80593 H 260.46779 L 233.03348,560.54586 H 97.273957 L 69.839653,637.80593 H 27.47792 Z M 109.57932,526.65647 L 220.32492,526.65647 L 164.85113,376.77667 Z" />
    <!-- R -->
    <path fill="#000000" id="i" d="M 316.08155,325.8328 H 405.12062 Q 458.47578,325.8328 484.73648,348.13336 511.00518,370.43392 511.00518,415.4524 511.00518,444.83948 497.2575,464.22235 483.51863,483.60522 457.4658,491.10861 Q 471.01063,495.69478 483.72438,510.70015 496.64629,525.70647 509.56822,551.96718 L 552.29408,637.00203 H 511.24572 L 471.43756,557.17749 Q 456.01483,525.91468 441.4254,515.70226 427.04463,505.48984 402.03458,505.48984 H 356.18233 V 637.00203 H 314.08155 Z M 356.18233,360.43019 V 470.89198 H 409.12062 Q 439.54933,470.89198 454.97258,456.92661 470.404,442.96124 470.404,415.65856 470.404,388.35542 454.97258,374.40024 439.54933,360.43537 409.12062,360.43019 Z" />
    <!-- M -->
    <path fill="#000000" id="v" d="M 566.32454,327.19244 H 628.86869 L 708.03589,538.30496 787.61866,327.19244 H 849.66285 V 637.4198 H 809.22861 V 365.00984 L 729.23026,577.78467 H 687.04931 L 607.05097,365.00984 V 637.4198 H 566.32454 Z" />
    <!-- - -->
    <path fill="#000000" id="y" d="m 883.62427,460.76802 h 167.12913 v 50.85191 H 883.62427 Z" />
    <!-- X -->
    <path fill="#000000" id="m" d="m 1071.9971,635.55617 c 0.058,-1.02294 21.063,-31.99007 46.677,-68.81581 l 46.5708,-66.95589 -25.0077,-1.56363 -25.0082,-1.56367 -10.0394,-2.10993 c -12.4689,-2.62054 -20.9462,-21.99468 -25.362,-33.74073 l -3.4661,-9.21978 v -64.55569 -64.55569 h 15.6465 15.6466 v 62.18694 l 1.2562,61.42786 5.4027,9.40184 6.4086,5.85484 h 35.6039 35.6039 l 47.8301,-69.36854 47.8306,-69.36853 18.4405,-0.0674 c 22.8541,-0.0835 26.3515,-8.78535 -28.4369,70.75163 l -46.8772,68.05265 19.4957,0.0608 c 24.4195,0.0761 36.4617,3.10844 48.3356,12.17192 l 9.3281,7.12018 6.0622,12.35791 6.0627,12.35791 v 66.00032 66.00036 h -15.6465 -15.6466 v -61.80598 -61.80595 l -5.7867,-7.62978 -5.787,-7.62983 -36.1235,0.0661 -36.1239,0.0661 -47.5895,69.36961 -47.5896,69.36965 h -18.9085 c -10.3997,0 -18.8608,-0.83695 -18.8024,-1.85989 z" />
 />
  </g>
</svg>
